{
  "accessors": [
    {
      "bufferView": 1,
      "componentType": 5126,
      "count": 1174,
      "max": [
        -0.44364577531814575,
        1.5163789987564087,
        0.50693857669830322
      ],
      "min": [
        -0.84219056367874146,
        1.2359744310379028,
        0.079057686030864716
      ],
      "type": "VEC3"
    },
    {
      "bufferView": 1,
      "byteOffset": 14088,
      "componentType": 5126,
      "count": 1174,
      "max": [
        0.99002969264984131,
        0.99976497888565063,
        0.99227011203765869
      ],
      "min": [
        -0.99002963304519653,
        -0.99976497888565063,
        -0.99227011203765869
      ],
      "type": "VEC3"
    },
    {
      "bufferView": 0,
      "componentType": 5125,
      "count": 6528,
      "max": [
        1173
      ],
      "min": [
        0
      ],
      "type": "SCALAR"
    },
    {
      "bufferView": 1,
      "byteOffset": 28176,
      "componentType": 5126,
      "count": 156,
      "max": [
        -0.45565751194953918,
        1.4379249811172485,
        0.56116855144500732
      ],
      "min": [
        -0.88798803091049194,
        1.1672934293746948,
        0.089520692825317383
      ],
      "type": "VEC3"
    },
    {
      "bufferView": 1,
      "byteOffset": 30048,
      "componentType": 5126,
      "count": 156,
      "max": [
        0.96524572372436523,
        0.99915391206741333,
        0.95308798551559448
      ],
      "min": [
        -0.96524572372436523,
        -0.99915391206741333,
        -0.95308804512023926
      ],
      "type": "VEC3"
    },
    {
      "bufferView": 0,
      "byteOffset": 26112,
      "componentType": 5125,
      "count": 288,
      "max": [
        155
      ],
      "min": [
        0
      ],
      "type": "SCALAR"
    },
    {
      "bufferView": 1,
      "byteOffset": 31920,
      "componentType": 5126,
      "count": 510,
      "max": [
        -0.61530196666717529,
        1.4296503067016602,
        0.38143554329872131
      ],
      "min": [
        -0.73963356018066406,
        1.3813325166702271,
        0.26415508985519409
      ],
      "type": "VEC3"
    },
    {
      "bufferView": 1,
      "byteOffset": 38040,
      "componentType": 5126,
      "count": 510,
      "max": [
        0.99949789047241211,
        0.99998456239700317,
        0.99998080730438232
      ],
      "min": [
        -0.99949789047241211,
        -0.99998462200164795,
        -0.99998074769973755
      ],
      "type": "VEC3"
    },
    {
      "bufferView": 0,
      "byteOffset": 27264,
      "componentType": 5125,
      "count": 1440,
      "max": [
        509
      ],
      "min": [
        0
      ],
      "type": "SCALAR"
    },
    {
      "bufferView": 1,
      "byteOffset": 44160,
      "componentType": 5126,
      "count": 204,
      "max": [
        -0.63543933629989624,
        1.4303261041641235,
        0.39591282606124878
      ],
      "min": [
        -0.74024242162704468,
        1.3813468217849731,
        0.3249366283416748
      ],
      "type": "VEC3"
    },
    {
      "bufferView": 1,
      "byteOffset": 46608,
      "componentType": 5126,
      "count": 204,
      "max": [
        0.98821026086807251,
        0.99925237894058228,
        0.99199306964874268
      ],
      "min": [
        -0.98821038007736206,
        -0.99925225973129272,
        -0.99199306964874268
      ],
      "type": "VEC3"
    },
    {
      "bufferView": 0,
      "byteOffset": 33024,
      "componentType": 5125,
      "count": 576,
      "max": [
        203
      ],
      "min": [
        0
      ],
      "type": "SCALAR"
    }
  ],
  "asset": {
    "extras": {
      "author": "cobyp (https://sketchfab.com/cobyp)",
      "license": "CC-BY-4.0 (http://creativecommons.org/licenses/by/4.0/)",
      "source": "https://sketchfab.com/3d-models/344-paintball-gun-79eaa002adb14dfb8caa51af4272f5e8",
      "title": "344 Paintball Gun"
    },
    "generator": "Sketchfab-6.3.0",
    "version": "2.0"
  },
  "bufferViews": [
    {
      "buffer": 0,
      "byteLength": 35328,
      "byteOffset": 0,
      "name": "floatBufferViews",
      "target": 34963
    },
    {
      "buffer": 0,
      "byteLength": 49056,
      "byteOffset": 35328,
      "byteStride": 12,
      "name": "floatBufferViews",
      "target": 34962
    }
  ],
  "buffers": [
    {
      "byteLength": 84384,
      "uri": "scene.bin"
    }
  ],
  "materials": [
    {
      "doubleSided": false,
      "emissiveFactor": [
        0,
        0,
        0
      ],
      "name": "material",
      "pbrMetallicRoughness": {
        "baseColorFactor": [
          0.047058799999999998,
          1,
          0.047058799999999998,
          1
        ],
        "metallicFactor": 0,
        "roughnessFactor": 0.5
      }
    },
    {
      "doubleSided": false,
      "emissiveFactor": [
        0,
        0,
        0
      ],
      "name": "material_1",
      "pbrMetallicRoughness": {
        "baseColorFactor": [
          0.047058799999999998,
          1,
          0.047058799999999998,
          1
        ],
        "metallicFactor": 0,
        "roughnessFactor": 1
      }
    },
    {
      "doubleSided": false,
      "emissiveFactor": [
        0,
        0,
        0
      ],
      "name": "material_2",
      "pbrMetallicRoughness": {
        "baseColorFactor": [
          0.062745099999999998,
          0.062745099999999998,
          0.062745099999999998,
          1
        ],
        "metallicFactor": 0,
        "roughnessFactor": 0.5
      }
    },
    {
      "doubleSided": false,
      "emissiveFactor": [
        0,
        0,
        0
      ],
      "name": "material_3",
      "pbrMetallicRoughness": {
        "baseColorFactor": [
          0.062745099999999998,
          0.062745099999999998,
          0.062745099999999998,
          1
        ],
        "metallicFactor": 0,
        "roughnessFactor": 0.5
      }
    }
  ],
  "meshes": [
    {
      "primitives": [
        {
          "attributes": {
            "NORMAL": 1,
            "POSITION": 0
          },
          "indices": 2,
          "material": 0,
          "mode": 4
        }
      ]
    },
    {
      "primitives": [
        {
          "attributes": {
            "NORMAL": 4,
            "POSITION": 3
          },
          "indices": 5,
          "material": 1,
          "mode": 4
        }
      ]
    },
    {
      "primitives": [
        {
          "attributes": {
            "NORMAL": 7,
            "POSITION": 6
          },
          "indices": 8,
          "material": 2,
          "mode": 4
        }
      ]
    },
    {
      "primitives": [
        {
          "attributes": {
            "NORMAL": 10,
            "POSITION": 9
          },
          "indices": 11,
          "material": 3,
          "mode": 4
        }
      ]
    }
  ],
  "nodes": [
    {
      "children": [
        1
      ],
      "name": "RootNode (gltf orientation matrix)",
      "rotation": [
        -0.70710678118654746,
        -0,
        -0,
        0.70710678118654757
      ]
    },
    {
      "children": [
        2
      ],
      "name": "RootNode (model correction matrix)"
    },
    {
      "children": [
        3
      ],
      "name": "root"
    },
    {
      "children": [
        4
      ],
      "matrix": [
        1,
        0,
        0,
        0,
        0,
        2.2204460492503131e-16,
        1,
        0,
        0,
        -1,
        2.2204460492503131e-16,
        0,
        0,
        0,
        0,
        1
      ],
      "name": "GLTF_SceneRootNode"
    },
    {
      "children": [
        5
      ],
      "name": "glbMedia_0"
    },
    {
      "children": [
        6
      ],
      "matrix": [
        -0.81103238710993919,
        -0,
        -0.58500125389502722,
        0,
        0,
        1,
        -0,
        0,
        0.58500125389502722,
        0,
        -0.81103238710993919,
        0,
        0,
        0,
        0,
        1
      ],
      "name": "rotation_1"
    },
    {
      "children": [
        7,
        8,
        9,
        10
      ],
      "matrix": [
        1,
        0,
        0,
        0,
        0,
        1,
        0,
        0,
        0,
        0,
        1,
        0,
        0.66581690311431885,
        -1.3418362140655518,
        -0.32011312246322632,
        1
      ],
      "name": "position_2"
    },
    {
      "mesh": 0,
      "name": ""
    },
    {
      "mesh": 1,
      "name": ""
    },
    {
      "mesh": 2,
      "name": ""
    },
    {
      "mesh": 3,
      "name": ""
    }
  ],
  "scene": 0,
  "scenes": [
    {
      "name": "OSG_Scene",
      "nodes": [
        0
      ]
    }
  ]
}

