{
  "accessors": [
    {
      "bufferView": 2,
      "componentType": 5126,
      "count": 41554,
      "max": [
        1,
        0.53741300106048584,
        0.22141599655151367
      ],
      "min": [
        -0.97349697351455688,
        -0.53741300106048584,
        -0.22141599655151367
      ],
      "type": "VEC3"
    },
    {
      "bufferView": 2,
      "byteOffset": 498648,
      "componentType": 5126,
      "count": 41554,
      "max": [
        1,
        1,
        1
      ],
      "min": [
        -1,
        -1,
        -1
      ],
      "type": "VEC3"
    },
    {
      "bufferView": 3,
      "componentType": 5126,
      "count": 41554,
      "max": [
        1,
        1,
        1,
        1
      ],
      "min": [
        -0.99990057945251465,
        -1,
        -1,
        -1
      ],
      "type": "VEC4"
    },
    {
      "bufferView": 1,
      "componentType": 5126,
      "count": 41554,
      "max": [
        0.97219598293304443,
        0.99800801277160645
      ],
      "min": [
        0.0019308299524709582,
        0.001992030069231987
      ],
      "type": "VEC2"
    },
    {
      "bufferView": 0,
      "componentType": 5125,
      "count": 122661,
      "max": [
        41553
      ],
      "min": [
        0
      ],
      "type": "SCALAR"
    },
    {
      "bufferView": 2,
      "byteOffset": 997296,
      "componentType": 5126,
      "count": 65533,
      "max": [
        -0.13596899807453156,
        0.13757699728012085,
        -4.1289800719823688e-05
      ],
      "min": [
        -0.52899998426437378,
        -0.194132000207901,
        -0.064093999564647675
      ],
      "type": "VEC3"
    },
    {
      "bufferView": 2,
      "byteOffset": 1783692,
      "componentType": 5126,
      "count": 65533,
      "max": [
        0.99999886751174927,
        0.9999811053276062,
        0.99999338388442993
      ],
      "min": [
        -0.99983209371566772,
        -0.99999552965164185,
        -0.99999874830245972
      ],
      "type": "VEC3"
    },
    {
      "bufferView": 3,
      "byteOffset": 664864,
      "componentType": 5126,
      "count": 65533,
      "max": [
        1,
        1,
        1,
        1
      ],
      "min": [
        -0.86287873983383179,
        -1,
        -1,
        1
      ],
      "type": "VEC4"
    },
    {
      "bufferView": 1,
      "byteOffset": 332432,
      "componentType": 5126,
      "count": 65533,
      "max": [
        0.96018600463867188,
        0.99730098247528076
      ],
      "min": [
        0.001916539971716702,
        0.14569500088691711
      ],
      "type": "VEC2"
    },
    {
      "bufferView": 0,
      "byteOffset": 490644,
      "componentType": 5125,
      "count": 65535,
      "max": [
        65532
      ],
      "min": [
        0
      ],
      "type": "SCALAR"
    },
    {
      "bufferView": 2,
      "byteOffset": 2570088,
      "componentType": 5126,
      "count": 65533,
      "max": [
        -0.12374699860811234,
        0.10143599659204483,
        0.024851299822330475
      ],
      "min": [
        -0.53986001014709473,
        -0.16078600287437439,
        -0.088111497461795807
      ],
      "type": "VEC3"
    },
    {
      "bufferView": 2,
      "byteOffset": 3356484,
      "componentType": 5126,
      "count": 65533,
      "max": [
        0.9999886155128479,
        0.99996674060821533,
        0.99995923042297363
      ],
      "min": [
        -1,
        -0.99995189905166626,
        -0.99999886751174927
      ],
      "type": "VEC3"
    },
    {
      "bufferView": 3,
      "byteOffset": 1713392,
      "componentType": 5126,
      "count": 65533,
      "max": [
        1,
        1,
        1,
        1
      ],
      "min": [
        -0.86531805992126465,
        -1,
        -0.99999964237213135,
        1
      ],
      "type": "VEC4"
    },
    {
      "bufferView": 1,
      "byteOffset": 856696,
      "componentType": 5126,
      "count": 65533,
      "max": [
        0.96018600463867188,
        0.99800598621368408
      ],
      "min": [
        0.001916539971716702,
        0.078488700091838837
      ],
      "type": "VEC2"
    },
    {
      "bufferView": 0,
      "byteOffset": 752784,
      "componentType": 5125,
      "count": 65535,
      "max": [
        65532
      ],
      "min": [
        0
      ],
      "type": "SCALAR"
    },
    {
      "bufferView": 2,
      "byteOffset": 4142880,
      "componentType": 5126,
      "count": 65532,
      "max": [
        -0.13056400418281555,
        0.04502590000629425,
        0.02416669949889183
      ],
      "min": [
        -0.54967498779296875,
        -0.21135400235652924,
        -0.088296800851821899
      ],
      "type": "VEC3"
    },
    {
      "bufferView": 2,
      "byteOffset": 4929264,
      "componentType": 5126,
      "count": 65532,
      "max": [
        0.9999886155128479,
        0.99991500377655029,
        0.99997878074645996
      ],
      "min": [
        -0.99998962879180908,
        -0.99995535612106323,
        -0.99997097253799438
      ],
      "type": "VEC3"
    },
    {
      "bufferView": 3,
      "byteOffset": 2761920,
      "componentType": 5126,
      "count": 65532,
      "max": [
        1,
        1,
        1,
        1
      ],
      "min": [
        -0.86559122800827026,
        -1,
        -0.99999958276748657,
        -1
      ],
      "type": "VEC4"
    },
    {
      "bufferView": 1,
      "byteOffset": 1380960,
      "componentType": 5126,
      "count": 65532,
      "max": [
        0.94853401184082031,
        0.99800801277160645
      ],
      "min": [
        0.001916539971716702,
        0.076563902199268341
      ],
      "type": "VEC2"
    },
    {
      "bufferView": 0,
      "byteOffset": 1014924,
      "componentType": 5125,
      "count": 65532,
      "max": [
        65531
      ],
      "min": [
        0
      ],
      "type": "SCALAR"
    },
    {
      "bufferView": 2,
      "byteOffset": 5715648,
      "componentType": 5126,
      "count": 65532,
      "max": [
        -0.12057299911975861,
        0.34556099772453308,
        0.023697400465607643
      ],
      "min": [
        -0.97755098342895508,
        -0.1904820054769516,
        -0.08791390061378479
      ],
      "type": "VEC3"
    },
    {
      "bufferView": 2,
      "byteOffset": 6502032,
      "componentType": 5126,
      "count": 65532,
      "max": [
        0.99994724988937378,
        0.99998646974563599,
        1
      ],
      "min": [
        -0.99998778104782104,
        -0.99993914365768433,
        -0.99998611211776733
      ],
      "type": "VEC3"
    },
    {
      "bufferView": 3,
      "byteOffset": 3810432,
      "componentType": 5126,
      "count": 65532,
      "max": [
        1,
        1,
        0.97952723503112793,
        1
      ],
      "min": [
        -0.86557549238204956,
        -1,
        -0.99998700618743896,
        1
      ],
      "type": "VEC4"
    },
    {
      "bufferView": 1,
      "byteOffset": 1905216,
      "componentType": 5126,
      "count": 65532,
      "max": [
        0.96018600463867188,
        0.99797600507736206
      ],
      "min": [
        0.001916539971716702,
        0.14586199820041656
      ],
      "type": "VEC2"
    },
    {
      "bufferView": 0,
      "byteOffset": 1277052,
      "componentType": 5125,
      "count": 65532,
      "max": [
        65531
      ],
      "min": [
        0
      ],
      "type": "SCALAR"
    },
    {
      "bufferView": 2,
      "byteOffset": 7288416,
      "componentType": 5126,
      "count": 65532,
      "max": [
        -0.85609298944473267,
        0.36560800671577454,
        0.033427000045776367
      ],
      "min": [
        -1,
        0.0005668110097758472,
        -0.10026399791240692
      ],
      "type": "VEC3"
    },
    {
      "bufferView": 2,
      "byteOffset": 8074800,
      "componentType": 5126,
      "count": 65532,
      "max": [
        0.99995851516723633,
        0.99993622303009033,
        0.99998962879180908
      ],
      "min": [
        -0.99995714426040649,
        -0.99992513656616211,
        -0.99998146295547485
      ],
      "type": "VEC3"
    },
    {
      "bufferView": 3,
      "byteOffset": 4858944,
      "componentType": 5126,
      "count": 65532,
      "max": [
        1,
        1,
        0.87216562032699585,
        1
      ],
      "min": [
        -0.8636016845703125,
        -1,
        -0.99098223447799683,
        1
      ],
      "type": "VEC4"
    },
    {
      "bufferView": 1,
      "byteOffset": 2429472,
      "componentType": 5126,
      "count": 65532,
      "max": [
        0.96018600463867188,
        0.99792701005935669
      ],
      "min": [
        0.001916539971716702,
        0.001992030069231987
      ],
      "type": "VEC2"
    },
    {
      "bufferView": 0,
      "byteOffset": 1539180,
      "componentType": 5125,
      "count": 65532,
      "max": [
        65531
      ],
      "min": [
        0
      ],
      "type": "SCALAR"
    },
    {
      "bufferView": 2,
      "byteOffset": 8861184,
      "componentType": 5126,
      "count": 20760,
      "max": [
        -0.86250799894332886,
        0.34217700362205505,
        0.033808100968599319
      ],
      "min": [
        -0.99853098392486572,
        0.080608002841472626,
        -0.10026399791240692
      ],
      "type": "VEC3"
    },
    {
      "bufferView": 2,
      "byteOffset": 9110304,
      "componentType": 5126,
      "count": 20760,
      "max": [
        0.99951809644699097,
        0.99992454051971436,
        0.99996685981750488
      ],
      "min": [
        -0.99979126453399658,
        -0.99882751703262329,
        -0.99998652935028076
      ],
      "type": "VEC3"
    },
    {
      "bufferView": 3,
      "byteOffset": 5907456,
      "componentType": 5126,
      "count": 20760,
      "max": [
        1,
        1,
        0.64484477043151855,
        1
      ],
      "min": [
        -0.86356955766677856,
        -1,
        -0.64546829462051392,
        1
      ],
      "type": "VEC4"
    },
    {
      "bufferView": 1,
      "byteOffset": 2953728,
      "componentType": 5126,
      "count": 20760,
      "max": [
        0.9270930290222168,
        0.99713301658630371
      ],
      "min": [
        0.001916539971716702,
        0.001992030069231987
      ],
      "type": "VEC2"
    },
    {
      "bufferView": 0,
      "byteOffset": 1801308,
      "componentType": 5125,
      "count": 20760,
      "max": [
        20759
      ],
      "min": [
        0
      ],
      "type": "SCALAR"
    }
  ],
  "asset": {
    "extras": {
      "author": "Tomas Anglim (https://sketchfab.com/tomas.anglim.811)",
      "license": "CC-BY-4.0 (http://creativecommons.org/licenses/by/4.0/)",
      "source": "https://sketchfab.com/3d-models/scifi-sub-machine-gun-c26277fadb954ef2b6fb015c26f13cf8",
      "title": "Scifi sub machine gun"
    },
    "generator": "Sketchfab-8.59.0",
    "version": "2.0"
  },
  "bufferViews": [
    {
      "buffer": 0,
      "byteLength": 1884348,
      "byteOffset": 0,
      "name": "floatBufferViews",
      "target": 34963
    },
    {
      "buffer": 0,
      "byteLength": 3119808,
      "byteOffset": 1884348,
      "byteStride": 8,
      "name": "floatBufferViews",
      "target": 34962
    },
    {
      "buffer": 0,
      "byteLength": 9359424,
      "byteOffset": 5004156,
      "byteStride": 12,
      "name": "floatBufferViews",
      "target": 34962
    },
    {
      "buffer": 0,
      "byteLength": 6239616,
      "byteOffset": 14363580,
      "byteStride": 16,
      "name": "floatBufferViews",
      "target": 34962
    }
  ],
  "buffers": [
    {
      "byteLength": 20603196,
      "uri": "scene.bin"
    }
  ],
  "images": [
    {
      "uri": "textures/lambert5_baseColor.jpeg"
    },
    {
      "uri": "textures/lambert5_normal.png"
    },
    {
      "uri": "textures/lambert4_baseColor.jpeg"
    },
    {
      "uri": "textures/lambert4_emissive.jpeg"
    },
    {
      "uri": "textures/lambert4_normal.png"
    }
  ],
  "materials": [
    {
      "doubleSided": true,
      "emissiveFactor": [
        0,
        0,
        0
      ],
      "name": "lambert5",
      "normalTexture": {
        "index": 1,
        "scale": 1,
        "texCoord": 0
      },
      "pbrMetallicRoughness": {
        "baseColorFactor": [
          1,
          1,
          1,
          1
        ],
        "baseColorTexture": {
          "index": 0,
          "texCoord": 0
        },
        "metallicFactor": 0,
        "roughnessFactor": 0.59999999999999998
      }
    },
    {
      "doubleSided": true,
      "emissiveFactor": [
        0.68591953498835645,
        0.68591953498835645,
        0.68591953498835645
      ],
      "emissiveTexture": {
        "index": 3,
        "texCoord": 0
      },
      "name": "lambert4",
      "normalTexture": {
        "index": 4,
        "scale": 1,
        "texCoord": 0
      },
      "pbrMetallicRoughness": {
        "baseColorFactor": [
          1,
          1,
          1,
          1
        ],
        "baseColorTexture": {
          "index": 2,
          "texCoord": 0
        },
        "metallicFactor": 0,
        "roughnessFactor": 0.59999999999999998
      }
    }
  ],
  "meshes": [
    {
      "name": "defaultMaterial",
      "primitives": [
        {
          "attributes": {
            "NORMAL": 1,
            "POSITION": 0,
            "TANGENT": 2,
            "TEXCOORD_0": 3
          },
          "indices": 4,
          "material": 1,
          "mode": 4
        }
      ]
    },
    {
      "name": "defaultMaterial",
      "primitives": [
        {
          "attributes": {
            "NORMAL": 6,
            "POSITION": 5,
            "TANGENT": 7,
            "TEXCOORD_0": 8
          },
          "indices": 9,
          "material": 0,
          "mode": 4
        }
      ]
    },
    {
      "name": "defaultMaterial",
      "primitives": [
        {
          "attributes": {
            "NORMAL": 11,
            "POSITION": 10,
            "TANGENT": 12,
            "TEXCOORD_0": 13
          },
          "indices": 14,
          "material": 0,
          "mode": 4
        }
      ]
    },
    {
      "name": "defaultMaterial",
      "primitives": [
        {
          "attributes": {
            "NORMAL": 16,
            "POSITION": 15,
            "TANGENT": 17,
            "TEXCOORD_0": 18
          },
          "indices": 19,
          "material": 0,
          "mode": 4
        }
      ]
    },
    {
      "name": "defaultMaterial",
      "primitives": [
        {
          "attributes": {
            "NORMAL": 21,
            "POSITION": 20,
            "TANGENT": 22,
            "TEXCOORD_0": 23
          },
          "indices": 24,
          "material": 0,
          "mode": 4
        }
      ]
    },
    {
      "name": "defaultMaterial",
      "primitives": [
        {
          "attributes": {
            "NORMAL": 26,
            "POSITION": 25,
            "TANGENT": 27,
            "TEXCOORD_0": 28
          },
          "indices": 29,
          "material": 0,
          "mode": 4
        }
      ]
    },
    {
      "name": "defaultMaterial",
      "primitives": [
        {
          "attributes": {
            "NORMAL": 31,
            "POSITION": 30,
            "TANGENT": 32,
            "TEXCOORD_0": 33
          },
          "indices": 34,
          "material": 0,
          "mode": 4
        }
      ]
    }
  ],
  "nodes": [
    {
      "children": [
        1
      ],
      "name": "RootNode (gltf orientation matrix)",
      "rotation": [
        -0.70710678118654746,
        -0,
        -0,
        0.70710678118654757
      ]
    },
    {
      "children": [
        2
      ],
      "name": "RootNode (model correction matrix)"
    },
    {
      "children": [
        3,
        5
      ],
      "matrix": [
        1,
        0,
        0,
        0,
        0,
        -4.3711390063094768e-08,
        0.999999999999999,
        0,
        0,
        -0.999999999999999,
        -4.3711390063094768e-08,
        0,
        0,
        0,
        0,
        1
      ],
      "name": "Collada visual scene group"
    },
    {
      "children": [
        4
      ],
      "name": "polySurface93"
    },
    {
      "mesh": 0,
      "name": "defaultMaterial"
    },
    {
      "children": [
        6,
        7,
        8,
        9,
        10,
        11
      ],
      "name": "curve16"
    },
    {
      "mesh": 1,
      "name": "defaultMaterial"
    },
    {
      "mesh": 2,
      "name": "defaultMaterial"
    },
    {
      "mesh": 3,
      "name": "defaultMaterial"
    },
    {
      "mesh": 4,
      "name": "defaultMaterial"
    },
    {
      "mesh": 5,
      "name": "defaultMaterial"
    },
    {
      "mesh": 6,
      "name": "defaultMaterial"
    }
  ],
  "samplers": [
    {
      "magFilter": 9729,
      "minFilter": 9987,
      "wrapS": 10497,
      "wrapT": 10497
    }
  ],
  "scene": 0,
  "scenes": [
    {
      "name": "OSG_Scene",
      "nodes": [
        0
      ]
    }
  ],
  "textures": [
    {
      "sampler": 0,
      "source": 0
    },
    {
      "sampler": 0,
      "source": 1
    },
    {
      "sampler": 0,
      "source": 2
    },
    {
      "sampler": 0,
      "source": 3
    },
    {
      "sampler": 0,
      "source": 4
    }
  ]
}

